<svg width="30" height="30" viewBox="0 0 30 30" fill="none" xmlns="http://www.w3.org/2000/svg">
  <rect width="30" height="30" rx="8" fill="#80ACFE"/>
  <path d="M15.0456 6.00014C15.0449 6.00014 15.0443 6.00014 15.0437 6.00011C15.0408 6.00011 15.038 6 15.0351 6C15.0347 6 15.0343 6 15.0339 6C15.0327 6 15.0316 6.00004 15.0305 6.00004C10.0706 6.00257 6 10.0167 6 14.9648C6 16.1748 6.241 17.3531 6.71634 18.467C7.63663 20.6238 9.37158 22.3613 11.5329 23.2836C12.6467 23.7589 13.8249 23.9999 15.0346 23.9999C15.035 23.9999 15.0353 24 15.0356 24C15.0364 24 15.0372 23.9999 15.0381 23.9999C20.0145 23.9983 24 19.8982 24 14.9648C24 10.0174 20.0007 6.00573 15.0456 6.00014ZM13.2885 7.24604C12.3891 8.09865 11.6543 9.09722 11.101 10.2187H8.65482C9.77669 8.74078 11.4083 7.66377 13.2885 7.24604ZM7.9788 11.2664H10.6504C10.2815 12.277 10.0634 13.3542 10.0071 14.4375H7.07286C7.14869 13.301 7.46774 12.2224 7.9788 11.2664ZM7.99866 18.7265C7.47519 17.7513 7.14883 16.6554 7.07258 15.4922H10.0035C10.0538 16.5994 10.2736 17.694 10.6504 18.7265H7.99866ZM8.6764 19.7812H11.101C11.6533 20.9007 12.3871 21.8989 13.2861 22.7517C11.4189 22.3325 9.79711 21.2572 8.6764 19.7812ZM11.0597 15.4922H14.5078V18.7265H11.7876C11.3665 17.712 11.1163 16.62 11.0597 15.4922ZM14.5078 22.422C13.6112 21.6754 12.8678 20.779 12.3024 19.7812H14.5078V22.422H14.5078ZM14.5078 14.4375H11.0633C11.1265 13.3345 11.3753 12.2669 11.7877 11.2734H14.5078V14.4375ZM14.5078 10.2187H12.3025C12.8678 9.22101 13.6112 8.32453 14.5078 7.57795V10.2187ZM22.0293 11.2734C22.5359 12.2294 22.8521 13.301 22.9273 14.4375H20.0632C20.0069 13.3542 19.7888 12.2841 19.4199 11.2734H22.0293ZM21.3593 10.2187H18.9693C18.4174 9.10018 17.6845 8.10273 16.7865 7.2504C18.6416 7.67136 20.2512 8.74605 21.3593 10.2187ZM15.5625 7.57816C16.4591 8.32474 17.2028 9.22101 17.7681 10.2187H15.5625V7.57816ZM15.5625 11.2734H18.2833C18.6956 12.2668 18.9438 13.3346 19.0071 14.4375H15.5625V11.2734ZM19.0109 15.4851C18.9544 16.6129 18.7044 17.7121 18.2833 18.7265H15.5625V15.4851H19.0109ZM15.5625 22.4218V19.7742H17.7681C17.2028 20.7719 16.4591 21.6752 15.5625 22.4218ZM16.7889 22.7473C17.6851 21.8961 18.4176 20.8925 18.9693 19.7742H21.3378C20.2311 21.2448 18.6313 22.3249 16.7889 22.7473ZM19.4199 18.7265C19.7968 17.694 20.0165 16.5924 20.0669 15.4851H22.9276C22.852 16.6484 22.5285 17.7513 22.0097 18.7265H19.4199Z" fill="white"/>
</svg>
